<?xml version="1.0" encoding="iso-8859-1"?>
<!-- Generator: Adobe Illustrator 17.1.0, SVG Export Plug-In . SVG Version: 6.00 Build 0)  -->
<!DOCTYPE svg PUBLIC "-//W3C//DTD SVG 1.1//EN" "http://www.w3.org/Graphics/SVG/1.1/DTD/svg11.dtd">
<svg version="1.1" id="Layer_1" xmlns="http://www.w3.org/2000/svg" xmlns:xlink="http://www.w3.org/1999/xlink" x="0px" y="0px"
	 width="152px" height="46px" viewBox="0 0 152 46" style="enable-background:new 0 0 152 46;" xml:space="preserve">
<g>
	<path style="fill:#4B5362;" d="M147.143,44.685H4.915c-2.138,0-3.886-1.773-3.886-3.94V4.625c0-2.167,1.748-3.94,3.886-3.94
		h142.228c2.137,0,3.886,1.773,3.886,3.94v36.12C151.029,42.912,149.28,44.685,147.143,44.685L147.143,44.685z"/>
	<g>
		<path style="fill:#FFFFFF;" d="M30.996,22.124c0-2.335,1.313-4.362,3.24-5.387c-1.27-1.766-3.139-2.889-5.392-2.889
			c-2.072,0-4.137,1.295-5.156,1.295c-1.021,0-3.085-1.295-5.157-1.295c-4.275,0-7.189,4.015-7.189,8.873
			c0,4.275,2.234,8.177,2.882,9.212c0.648,1.037,2.327,2.93,3.109,3.433c0.907,0.583,2.526,0.551,3.513,0.033
			c0.641-0.336,1.968-0.899,2.842-0.899c0.874,0,2.2,0.562,2.842,0.899c0.987,0.518,2.607,0.551,3.513-0.033
			c0.782-0.503,2.461-2.396,3.109-3.433c0.366-0.585,1.239-2.088,1.929-4.056C32.704,27.044,30.996,24.786,30.996,22.124
			L30.996,22.124z"/>
		<path style="fill:#FFFFFF;" d="M28.86,6.885c0,0-2.862,0.197-4.405,2.202c-1.943,2.526-1.295,4.761-1.295,4.761
			s2.527-0.051,4.177-2.073C28.634,10.189,29.119,8.537,28.86,6.885L28.86,6.885z"/>
	</g>
	<g>
		<path style="fill:#FFFFFF;" d="M54.545,12.313c0,0.787-0.14,1.467-0.42,2.04s-0.682,1.009-1.205,1.305
			c-0.523,0.297-1.139,0.445-1.845,0.445h-2.21v-7.1h2.2c1.14,0,2.005,0.279,2.595,0.84C54.25,10.403,54.545,11.227,54.545,12.313z
			 M53.685,12.344c0-0.867-0.215-1.521-0.645-1.965s-1.068-0.665-1.915-0.665h-1.45v5.68h1.28c0.894,0,1.571-0.26,2.035-0.78
			C53.453,14.094,53.685,13.337,53.685,12.344z"/>
		<path style="fill:#FFFFFF;" d="M58.186,16.203c-0.773,0-1.379-0.248-1.815-0.744c-0.437-0.497-0.655-1.195-0.655-2.096
			c0-0.906,0.219-1.609,0.655-2.109s1.042-0.75,1.815-0.75c0.779,0,1.387,0.251,1.819,0.755c0.434,0.503,0.65,1.205,0.65,2.104
			c0,0.894-0.217,1.59-0.65,2.09C59.572,15.953,58.965,16.203,58.186,16.203z M58.186,15.533c0.52,0,0.925-0.188,1.215-0.564
			s0.435-0.915,0.435-1.615c0-0.693-0.145-1.23-0.435-1.61s-0.695-0.569-1.215-0.569c-0.521,0-0.925,0.191-1.215,0.574
			c-0.29,0.384-0.436,0.919-0.436,1.605c0,0.693,0.146,1.23,0.436,1.61S57.665,15.533,58.186,15.533z"/>
		<path style="fill:#FFFFFF;" d="M63.085,16.104l-1.74-5.5h0.82l1.35,4.57l1.311-4.57h0.739l1.24,4.57l1.391-4.57h0.81l-1.79,5.5
			h-0.86l-1.18-4.36l-1.26,4.36H63.085z"/>
		<path style="fill:#FFFFFF;" d="M74.265,16.104h-0.771v-3.74c0-0.387-0.098-0.683-0.295-0.89c-0.196-0.207-0.465-0.311-0.805-0.311
			c-0.313,0-0.599,0.044-0.855,0.131c-0.256,0.086-0.515,0.22-0.774,0.399v4.41h-0.771v-5.5h0.631l0.109,0.46
			c0.313-0.206,0.613-0.352,0.9-0.435c0.286-0.084,0.606-0.125,0.96-0.125c0.326,0,0.616,0.069,0.87,0.21
			c0.253,0.14,0.449,0.34,0.59,0.6c0.14,0.26,0.21,0.577,0.21,0.95V16.104z"/>
		<path style="fill:#FFFFFF;" d="M75.914,16.104v-7.68h0.771v7.68H75.914z"/>
		<path style="fill:#FFFFFF;" d="M80.564,16.203c-0.773,0-1.379-0.248-1.815-0.744c-0.437-0.497-0.655-1.195-0.655-2.096
			c0-0.906,0.219-1.609,0.655-2.109s1.042-0.75,1.815-0.75c0.779,0,1.387,0.251,1.819,0.755c0.434,0.503,0.65,1.205,0.65,2.104
			c0,0.894-0.217,1.59-0.65,2.09C81.951,15.953,81.344,16.203,80.564,16.203z M80.564,15.533c0.52,0,0.925-0.188,1.215-0.564
			s0.435-0.915,0.435-1.615c0-0.693-0.145-1.23-0.435-1.61s-0.695-0.569-1.215-0.569c-0.521,0-0.925,0.191-1.215,0.574
			c-0.29,0.384-0.436,0.919-0.436,1.605c0,0.693,0.146,1.23,0.436,1.61S80.044,15.533,80.564,15.533z"/>
		<path style="fill:#FFFFFF;" d="M87.563,16.104l-0.12-0.47c-0.273,0.18-0.555,0.319-0.845,0.42c-0.29,0.1-0.608,0.149-0.955,0.149
			c-0.507,0-0.908-0.135-1.205-0.404c-0.297-0.271-0.444-0.646-0.444-1.125c0-0.627,0.267-1.082,0.8-1.365s1.399-0.445,2.6-0.485
			v-0.47c0-0.38-0.111-0.677-0.335-0.89c-0.224-0.214-0.521-0.32-0.895-0.32c-0.467,0-0.95,0.104-1.45,0.31l-0.21-0.619
			c0.54-0.214,1.113-0.32,1.72-0.32c0.613,0,1.09,0.158,1.43,0.475c0.341,0.317,0.511,0.745,0.511,1.285v3.83H87.563z
			 M87.394,13.413c-0.866,0-1.519,0.103-1.955,0.306s-0.654,0.524-0.654,0.965c0,0.273,0.09,0.491,0.27,0.655
			c0.18,0.163,0.42,0.245,0.72,0.245c0.54,0,1.08-0.164,1.62-0.49V13.413z"/>
		<path style="fill:#FFFFFF;" d="M89.533,13.424c0-0.594,0.099-1.11,0.296-1.551c0.196-0.439,0.473-0.777,0.829-1.015
			c0.357-0.236,0.766-0.354,1.226-0.354c0.267,0,0.505,0.026,0.715,0.08c0.21,0.053,0.448,0.156,0.715,0.31v-2.47h0.771v7.68h-0.61
			l-0.12-0.47c-0.286,0.206-0.56,0.354-0.82,0.439c-0.26,0.087-0.526,0.13-0.8,0.13c-0.746,0-1.3-0.232-1.66-0.699
			C89.714,15.037,89.533,14.344,89.533,13.424z M90.344,13.413c0,0.707,0.121,1.239,0.365,1.596
			c0.243,0.356,0.628,0.535,1.154,0.535c0.247,0,0.5-0.051,0.761-0.15c0.26-0.1,0.489-0.233,0.689-0.4v-3.399
			c-0.273-0.167-0.505-0.28-0.695-0.34c-0.189-0.061-0.404-0.091-0.645-0.091c-0.313,0-0.594,0.091-0.84,0.271
			c-0.247,0.18-0.44,0.439-0.58,0.78C90.414,12.554,90.344,12.953,90.344,13.413z"/>
		<path style="fill:#FFFFFF;" d="M100.434,16.203c-0.773,0-1.379-0.248-1.815-0.744c-0.437-0.497-0.655-1.195-0.655-2.096
			c0-0.906,0.219-1.609,0.655-2.109s1.042-0.75,1.815-0.75c0.779,0,1.387,0.251,1.819,0.755c0.434,0.503,0.65,1.205,0.65,2.104
			c0,0.894-0.217,1.59-0.65,2.09C101.82,15.953,101.213,16.203,100.434,16.203z M100.434,15.533c0.52,0,0.925-0.188,1.215-0.564
			s0.435-0.915,0.435-1.615c0-0.693-0.145-1.23-0.435-1.61s-0.695-0.569-1.215-0.569c-0.521,0-0.925,0.191-1.215,0.574
			c-0.29,0.384-0.436,0.919-0.436,1.605c0,0.693,0.146,1.23,0.436,1.61S99.913,15.533,100.434,15.533z"/>
		<path style="fill:#FFFFFF;" d="M108.583,16.104h-0.771v-3.74c0-0.387-0.098-0.683-0.295-0.89
			c-0.196-0.207-0.465-0.311-0.805-0.311c-0.313,0-0.599,0.044-0.855,0.131c-0.256,0.086-0.515,0.22-0.774,0.399v4.41h-0.771v-5.5
			h0.631l0.109,0.46c0.313-0.206,0.613-0.352,0.9-0.435c0.286-0.084,0.606-0.125,0.96-0.125c0.326,0,0.616,0.069,0.87,0.21
			c0.253,0.14,0.449,0.34,0.59,0.6c0.14,0.26,0.21,0.577,0.21,0.95V16.104z"/>
		<path style="fill:#FFFFFF;" d="M113.692,11.254v3.529c0,0.273,0.054,0.467,0.16,0.58s0.257,0.17,0.45,0.17
			c0.206,0,0.507-0.043,0.899-0.13l0.11,0.62c-0.354,0.12-0.753,0.18-1.2,0.18c-0.8,0-1.2-0.43-1.2-1.29v-3.659h-0.85v-0.65h0.87
			l0.09-1.29h0.67v1.29h1.47v0.65H113.692z"/>
		<path style="fill:#FFFFFF;" d="M119.843,16.104v-3.74c0-0.399-0.102-0.7-0.305-0.899c-0.204-0.2-0.472-0.301-0.806-0.301
			c-0.313,0-0.6,0.044-0.859,0.131c-0.261,0.086-0.521,0.22-0.78,0.399v4.41h-0.771v-7.68h0.771v2.63
			c0.307-0.2,0.6-0.342,0.88-0.425c0.28-0.084,0.597-0.125,0.95-0.125c0.34,0,0.637,0.068,0.89,0.205
			c0.254,0.137,0.45,0.338,0.59,0.604c0.141,0.267,0.21,0.587,0.21,0.96v3.83H119.843z"/>
		<path style="fill:#FFFFFF;" d="M126.322,13.443h-3.54c0,0.687,0.149,1.212,0.45,1.575c0.3,0.363,0.739,0.545,1.319,0.545
			c0.24,0,0.505-0.033,0.795-0.1c0.29-0.067,0.579-0.16,0.865-0.28l0.16,0.65c-0.253,0.106-0.557,0.194-0.91,0.265
			s-0.687,0.104-1,0.104c-0.819,0-1.439-0.238-1.859-0.715c-0.421-0.477-0.631-1.161-0.631-2.055c0-0.934,0.193-1.655,0.58-2.165
			s0.94-0.765,1.66-0.765c0.687,0,1.21,0.211,1.57,0.635c0.36,0.423,0.54,1.048,0.54,1.875V13.443z M125.542,12.844
			c0-0.561-0.108-0.985-0.325-1.275s-0.541-0.435-0.975-0.435c-0.42,0-0.757,0.144-1.01,0.43c-0.254,0.287-0.403,0.714-0.45,1.28
			H125.542z"/>
	</g>
	<g>
		<path style="fill:#FFFFFF;" d="M53.855,30.104h-5.461l-1.859,5h-1.66l5.42-14.2h1.78l5.399,14.2h-1.699L53.855,30.104z
			 M53.395,28.703l-1.52-4.22l-0.7-2.2c-0.04,0.147-0.14,0.471-0.3,0.971s-0.297,0.909-0.41,1.229s-0.637,1.727-1.57,4.22H53.395z"
			/>
		<path style="fill:#FFFFFF;" d="M68.274,29.483c0,1.187-0.2,2.217-0.6,3.09c-0.4,0.874-0.974,1.544-1.72,2.011
			c-0.747,0.467-1.614,0.699-2.601,0.699c-0.946,0-1.827-0.093-2.64-0.279v4.52h-1.54v-15.42h1.26l0.2,0.94
			c0.586-0.413,1.146-0.707,1.68-0.881c0.533-0.173,1.073-0.26,1.62-0.26C66.828,23.903,68.274,25.764,68.274,29.483z
			 M66.654,29.483c0-1.427-0.243-2.493-0.729-3.2c-0.487-0.706-1.257-1.06-2.311-1.06c-0.467,0-0.956,0.094-1.47,0.28
			s-0.99,0.453-1.43,0.8v7.26c0.746,0.267,1.633,0.4,2.66,0.4c0.64,0,1.21-0.181,1.71-0.54c0.5-0.36,0.886-0.877,1.159-1.551
			C66.518,31.2,66.654,30.403,66.654,29.483z"/>
		<path style="fill:#FFFFFF;" d="M80.194,29.483c0,1.187-0.2,2.217-0.6,3.09c-0.4,0.874-0.974,1.544-1.72,2.011
			c-0.747,0.467-1.614,0.699-2.601,0.699c-0.946,0-1.827-0.093-2.64-0.279v4.52h-1.54v-15.42h1.26l0.2,0.94
			c0.586-0.413,1.146-0.707,1.68-0.881c0.533-0.173,1.073-0.26,1.62-0.26C78.748,23.903,80.194,25.764,80.194,29.483z
			 M78.574,29.483c0-1.427-0.243-2.493-0.729-3.2c-0.487-0.706-1.257-1.06-2.311-1.06c-0.467,0-0.956,0.094-1.47,0.28
			s-0.99,0.453-1.43,0.8v7.26c0.746,0.267,1.633,0.4,2.66,0.4c0.64,0,1.21-0.181,1.71-0.54c0.5-0.36,0.886-0.877,1.159-1.551
			C78.438,31.2,78.574,30.403,78.574,29.483z"/>
		<path style="fill:#FFFFFF;" d="M95.854,31.384c0,1.2-0.406,2.153-1.22,2.859c-0.813,0.707-1.88,1.061-3.2,1.061
			c-1.6,0-3.026-0.213-4.279-0.641l0.479-1.52c0.747,0.28,1.413,0.474,2,0.58s1.18,0.16,1.78,0.16c0.853,0,1.536-0.217,2.05-0.65
			c0.513-0.433,0.771-1.01,0.771-1.729c0-0.521-0.104-0.943-0.311-1.271c-0.207-0.326-0.554-0.646-1.04-0.96s-1.13-0.643-1.93-0.99
			c-1.228-0.52-2.124-1.113-2.69-1.779c-0.566-0.667-0.85-1.493-0.85-2.48c0-1,0.373-1.803,1.12-2.41
			c0.746-0.606,1.732-0.91,2.96-0.91c0.56,0,1.1,0.04,1.62,0.12c0.52,0.08,1.173,0.24,1.96,0.48l-0.42,1.439
			c-1.174-0.426-2.233-0.64-3.181-0.64c-0.773,0-1.377,0.17-1.81,0.51c-0.434,0.34-0.65,0.817-0.65,1.431
			c0,0.653,0.233,1.199,0.7,1.64c0.467,0.439,1.32,0.92,2.56,1.439c1.267,0.547,2.181,1.15,2.74,1.811
			C95.574,29.594,95.854,30.41,95.854,31.384z"/>
		<path style="fill:#FFFFFF;" d="M100.573,25.403v7.061c0,0.547,0.106,0.933,0.32,1.159c0.213,0.228,0.513,0.341,0.9,0.341
			c0.413,0,1.013-0.087,1.8-0.261l0.22,1.24c-0.707,0.24-1.507,0.36-2.4,0.36c-1.6,0-2.399-0.86-2.399-2.58v-7.32h-1.7v-1.3h1.74
			l0.18-2.58h1.34v2.58h2.94v1.3H100.573z"/>
		<path style="fill:#FFFFFF;" d="M110.193,35.304c-1.547,0-2.757-0.497-3.63-1.49s-1.31-2.39-1.31-4.19
			c0-1.812,0.437-3.22,1.31-4.22s2.083-1.5,3.63-1.5c1.561,0,2.773,0.504,3.641,1.51c0.866,1.007,1.3,2.41,1.3,4.21
			c0,1.787-0.434,3.181-1.3,4.181C112.967,34.804,111.754,35.304,110.193,35.304z M110.193,33.964c1.04,0,1.851-0.377,2.431-1.13
			c0.58-0.754,0.87-1.83,0.87-3.23c0-1.387-0.29-2.46-0.87-3.22c-0.58-0.761-1.391-1.141-2.431-1.141s-1.85,0.384-2.43,1.15
			s-0.87,1.837-0.87,3.21c0,1.387,0.29,2.46,0.87,3.22C108.344,33.584,109.153,33.964,110.193,33.964z"/>
		<path style="fill:#FFFFFF;" d="M117.954,24.104h1.24l0.18,1.34c0.373-0.52,0.776-0.906,1.21-1.16c0.433-0.253,0.95-0.38,1.55-0.38
			c0.413,0,0.78,0.04,1.101,0.12l-0.221,1.48c-0.267-0.094-0.64-0.141-1.12-0.141c-0.479,0-0.917,0.124-1.31,0.37
			c-0.394,0.247-0.757,0.617-1.09,1.11v8.26h-1.54V24.104z"/>
		<path style="fill:#FFFFFF;" d="M132.814,29.783h-7.08c0,1.374,0.3,2.424,0.899,3.15c0.601,0.727,1.48,1.09,2.641,1.09
			c0.479,0,1.01-0.066,1.59-0.2c0.58-0.133,1.156-0.319,1.729-0.56l0.32,1.3c-0.507,0.214-1.113,0.39-1.82,0.53
			c-0.706,0.14-1.373,0.21-2,0.21c-1.64,0-2.88-0.477-3.72-1.431c-0.84-0.953-1.26-2.322-1.26-4.109c0-1.867,0.387-3.311,1.16-4.33
			c0.772-1.021,1.88-1.53,3.319-1.53c1.373,0,2.42,0.424,3.141,1.271c0.72,0.847,1.08,2.097,1.08,3.75V29.783z M131.254,28.584
			c0-1.12-0.217-1.971-0.649-2.551c-0.434-0.58-1.084-0.87-1.95-0.87c-0.84,0-1.514,0.287-2.021,0.86s-0.807,1.427-0.899,2.561
			H131.254z"/>
	</g>
</g>
</svg>
