<?xml version="1.0" encoding="iso-8859-1"?>
<!-- Generator: Adobe Illustrator 17.1.0, SVG Export Plug-In . SVG Version: 6.00 Build 0)  -->
<!DOCTYPE svg PUBLIC "-//W3C//DTD SVG 1.1//EN" "http://www.w3.org/Graphics/SVG/1.1/DTD/svg11.dtd">
<svg version="1.1" id="Layer_1" xmlns="http://www.w3.org/2000/svg" xmlns:xlink="http://www.w3.org/1999/xlink" x="0px" y="0px"
	 width="152px" height="46px" viewBox="0 0 152 46" style="enable-background:new 0 0 152 46;" xml:space="preserve">
<path style="fill:#4B5362;" d="M147.114,45H4.886C2.748,45,1,43.227,1,41.06V4.94C1,2.773,2.748,1,4.886,1h142.228
	C149.251,1,151,2.773,151,4.94v36.12C151,43.227,149.251,45,147.114,45L147.114,45z"/>
<g>
	<g>
		<path style="fill:#FFFFFF;" d="M105.494,32.607l-0.987,0.931c-0.227,0.125-0.454,0.271-0.681,0.374
			c-0.685,0.311-1.382,0.389-2.002,0.389c-0.659,0-1.692-0.042-2.746-0.805c-1.464-1.032-2.104-2.804-2.104-4.349
			c0-3.199,2.604-4.767,4.727-4.767c0.743,0,1.505,0.186,2.125,0.578c1.03,0.681,1.297,1.567,1.445,2.042l-4.85,1.959l-1.588,0.124
			c0.514,2.622,2.288,4.148,4.249,4.148c0.979,0,1.706-0.319,2.373-0.649C105.456,32.581,105.59,32.511,105.494,32.607z
			 M102.568,27.39c0.394-0.143,0.599-0.267,0.599-0.554c0-0.824-0.933-1.776-2.045-1.776c-0.824,0-2.371,0.642-2.371,2.871
			c0,0.348,0.041,0.718,0.062,1.089L102.568,27.39z"/>
		<path style="fill:#FFFFFF;" d="M95.354,32.447c0,0.802,0.143,0.927,0.821,0.989c0.353,0.042,0.706,0.06,1.054,0.101l-0.763,0.454
			H92.83c0.477-0.619,0.559-0.68,0.559-1.093v-0.46l-0.008-12.266h-1.605l1.545-0.745h2.951c-0.639,0.37-0.83,0.596-0.913,1.318
			L95.354,32.447z"/>
		<path style="fill:#FFFFFF;" d="M89.715,25.392c0.473,0.389,1.462,1.216,1.462,2.783c0,1.528-0.861,2.248-1.73,2.93
			c-0.266,0.268-0.578,0.559-0.578,1.01c0,0.456,0.312,0.704,0.536,0.888l0.745,0.576c0.906,0.765,1.732,1.466,1.732,2.89
			c0,1.941-1.878,3.897-5.427,3.897c-2.989,0-4.435-1.423-4.435-2.95c0-0.743,0.37-1.795,1.59-2.516
			c1.279-0.782,3.012-0.887,3.94-0.947c-0.29-0.374-0.62-0.766-0.62-1.405c0-0.35,0.105-0.558,0.207-0.804
			c-0.226,0.021-0.453,0.044-0.66,0.044c-2.188,0-3.425-1.632-3.425-3.241c0-0.949,0.433-2.001,1.322-2.764
			c1.176-0.968,2.579-1.136,3.693-1.136h4.251l-1.322,0.746H89.715z M88.253,34.551c-0.169-0.022-0.27-0.022-0.475-0.022
			c-0.187,0-1.302,0.041-2.165,0.33c-0.457,0.167-1.777,0.66-1.777,2.126c0,1.462,1.425,2.516,3.63,2.516
			c1.98,0,3.032-0.949,3.032-2.227C90.499,36.222,89.819,35.667,88.253,34.551z M88.847,30.631c0.477-0.476,0.518-1.134,0.518-1.508
			c0-1.484-0.885-3.795-2.599-3.795c-0.535,0-1.115,0.269-1.444,0.684c-0.349,0.43-0.453,0.987-0.453,1.524
			c0,1.381,0.805,3.673,2.578,3.673C87.964,31.209,88.52,30.957,88.847,30.631z"/>
		<path style="fill:#FFFFFF;" d="M76.925,34.259c-3.279,0-5.034-2.554-5.034-4.866c0-2.702,2.206-5.013,5.343-5.013
			c3.033,0,4.933,2.374,4.933,4.868C82.167,31.682,80.289,34.259,76.925,34.259z M79.505,32.59c0.499-0.66,0.62-1.484,0.62-2.288
			c0-1.817-0.866-5.282-3.424-5.282c-0.681,0-1.366,0.266-1.86,0.7c-0.806,0.722-0.949,1.629-0.949,2.519
			c0,2.038,1.007,5.4,3.508,5.4C78.206,33.639,79.029,33.249,79.505,32.59z"/>
		<path style="fill:#FFFFFF;" d="M65.946,34.259c-3.28,0-5.032-2.554-5.032-4.866c0-2.702,2.207-5.013,5.343-5.013
			c3.031,0,4.928,2.374,4.928,4.868C71.185,31.682,69.31,34.259,65.946,34.259z M68.526,32.59c0.495-0.66,0.618-1.484,0.618-2.288
			c0-1.817-0.868-5.282-3.424-5.282c-0.683,0-1.361,0.266-1.856,0.7c-0.807,0.722-0.95,1.629-0.95,2.519
			c0,2.038,1.011,5.4,3.508,5.4C67.227,33.639,68.049,33.249,68.526,32.59z"/>
		<path style="fill:#FFFFFF;" d="M59.603,33.543l-2.766,0.633c-1.121,0.177-2.127,0.333-3.192,0.333c-5.335,0-7.367-3.927-7.367-7
			c0-3.753,2.88-7.233,7.812-7.233c1.044,0,2.048,0.153,2.962,0.402c1.45,0.408,2.127,0.909,2.551,1.204l-1.607,1.526l-0.678,0.152
			l0.483-0.77c-0.654-0.639-1.857-1.818-4.139-1.818c-3.051,0-5.354,2.319-5.354,5.706c0,3.637,2.629,7.058,6.844,7.058
			c1.239,0,1.876-0.249,2.455-0.481v-3.118l-2.92,0.157l1.548-0.832h4.098l-0.501,0.482c-0.135,0.115-0.153,0.154-0.192,0.308
			c-0.02,0.176-0.039,0.736-0.039,0.933V33.543z"/>
	</g>
	<g>
		<path style="fill:#FFFFFF;" d="M111.441,32.695v5.255h-1.044V24.579h1.044v1.522c0.679-0.984,1.922-1.764,3.365-1.764
			c2.587,0,4.331,1.963,4.331,5.071c0,3.087-1.743,5.091-4.331,5.091C113.443,34.498,112.224,33.796,111.441,32.695z
			 M118.016,29.407c0-2.342-1.221-4.128-3.386-4.128c-1.344,0-2.63,1.057-3.189,1.978v4.28c0.559,0.923,1.844,2.018,3.189,2.018
			C116.795,33.555,118.016,31.753,118.016,29.407z"/>
		<path style="fill:#FFFFFF;" d="M120.562,34.258V20.887h1.043v13.371H120.562z"/>
		<path style="fill:#FFFFFF;" d="M133.315,37.085c0.223,0.099,0.604,0.161,0.845,0.161c0.638,0,1.082-0.261,1.482-1.183l0.761-1.724
			l-4.111-9.759h1.164l3.527,8.457l3.492-8.457h1.18l-5.014,11.807c-0.52,1.217-1.339,1.802-2.463,1.802
			c-0.337,0-0.782-0.06-1.043-0.14L133.315,37.085z"/>
		<path style="fill:#FFFFFF;" d="M130.266,34.228c-0.07-0.336-0.122-0.631-0.161-0.878c-0.032-0.247-0.05-0.498-0.05-0.755
			c-0.358,0.525-0.865,0.962-1.512,1.307c-0.648,0.346-1.263,0.516-2.108,0.516c-1.017,0-1.805-0.25-2.369-0.758
			c-0.561-0.507-0.844-1.193-0.844-2.062c0-0.868,0.409-1.572,1.225-2.111c0.815-0.541,1.87-0.81,3.174-0.81h2.434v-1.203
			c0-0.693-0.236-1.237-0.707-1.632c-0.473-0.395-1.137-0.595-1.998-0.595c-0.787,0-1.425,0.183-1.911,0.538
			c-0.482,0.363-0.724,0.813-0.724,1.355h-1.068l-0.022-0.052c-0.039-0.731,0.296-1.373,1.007-1.926
			c0.707-0.553,1.635-0.832,2.777-0.832c1.137,0,2.058,0.274,2.752,0.82c0.693,0.541,1.041,1.323,1.041,2.345v4.775
			c0,0.343,0.016,0.674,0.059,0.997c0.044,0.324,0.114,0.646,0.208,0.958H130.266z M126.563,33.468c0.887,0,1.524-0.198,2.175-0.59
			c0.647-0.39,1.087-0.898,1.318-1.513v-1.859h-2.445c-0.934,0-1.708,0.207-2.316,0.624c-0.61,0.416-0.919,0.919-0.919,1.504
			c0,0.552,0.196,0.993,0.585,1.328C125.351,33.301,125.884,33.468,126.563,33.468z"/>
	</g>
</g>
<g>
	<g>
		<path style="fill:#FFFFFF;" d="M46.252,10.918c0-2.055,1.527-3.376,3.425-3.376c1.272,0,2.104,0.607,2.623,1.35l-0.93,0.539
			c-0.352-0.49-0.969-0.871-1.693-0.871c-1.291,0-2.251,0.978-2.251,2.358c0,1.36,0.959,2.358,2.251,2.358
			c0.666,0,1.253-0.303,1.546-0.587v-1.008h-1.957v-1.008h3.092v2.436c-0.636,0.715-1.556,1.194-2.681,1.194
			C47.778,14.304,46.252,12.964,46.252,10.918z"/>
		<path style="fill:#FFFFFF;" d="M53.774,14.177V7.649h4.472v1.008h-3.327v1.683h3.259v1.008h-3.259v1.82h3.327v1.008H53.774z"/>
		<path style="fill:#FFFFFF;" d="M61.414,14.177V8.658h-1.977V7.649h5.098v1.008h-1.976v5.519H61.414z"/>
		<path style="fill:#FFFFFF;" d="M68.515,14.177V7.649h1.145v6.527H68.515z"/>
		<path style="fill:#FFFFFF;" d="M72.848,14.177V8.658h-1.977V7.649h5.098v1.008h-1.976v5.519H72.848z"/>
		<path style="fill:#FFFFFF;" d="M79.665,10.918c0-1.948,1.38-3.376,3.337-3.376c1.947,0,3.337,1.429,3.337,3.376
			c0,1.947-1.39,3.376-3.337,3.376C81.045,14.294,79.665,12.866,79.665,10.918z M85.165,10.918c0-1.35-0.851-2.358-2.162-2.358
			c-1.321,0-2.163,1.008-2.163,2.358c0,1.34,0.842,2.358,2.163,2.358C84.314,13.276,85.165,12.259,85.165,10.918z"/>
		<path style="fill:#FFFFFF;" d="M92.227,14.177l-3.405-4.668v4.668h-1.145V7.649h1.174l3.337,4.521V7.649h1.145v6.527H92.227z"/>
	</g>
</g>
<g id="g11" transform="matrix(1.3463089,0,0,1.3463089,-87.877922,-71.308561)">
	<path id="path13-6" style="fill:#FFFFFF;" d="M84.718,70.176l2.985-2.992l-12.385-6.853c-0.176-0.098-0.347-0.163-0.509-0.2
		L84.718,70.176z"/>
	<path id="path15" style="fill:#FFFFFF;" d="M88.136,73.641l3.743-2.071c1.031-0.57,1.031-1.504,0-2.074l-3.632-2.01l-3.109,3.116
		L88.136,73.641L88.136,73.641z"/>
	<path id="path17-8" style="fill:#FFFFFF;" d="M74.041,60.203c-0.367,0.189-0.597,0.618-0.597,1.233v18.193
		c0,0.621,0.234,1.052,0.607,1.238l10.245-10.268L74.041,60.203z"/>
	<path id="path19-3" style="fill:#FFFFFF;" d="M84.715,71.025l-9.881,9.904c0.154-0.038,0.317-0.102,0.483-0.194l12.275-6.792
		L84.715,71.025L84.715,71.025z"/>
</g>
</svg>
