<?xml version="1.0" encoding="iso-8859-1"?>
<!-- Generator: Adobe Illustrator 17.1.0, SVG Export Plug-In . SVG Version: 6.00 Build 0)  -->
<!DOCTYPE svg PUBLIC "-//W3C//DTD SVG 1.1//EN" "http://www.w3.org/Graphics/SVG/1.1/DTD/svg11.dtd">
<svg version="1.1" id="Layer_1" xmlns="http://www.w3.org/2000/svg" xmlns:xlink="http://www.w3.org/1999/xlink" x="0px" y="0px"
	 width="152px" height="46px" viewBox="0 0 152 46" style="enable-background:new 0 0 152 46;" xml:space="preserve">
<path style="fill:#4B5362;" d="M147.084,45H4.856c-2.138,0-3.886-1.773-3.886-3.94V4.94C0.97,2.773,2.718,1,4.856,1h142.228
	c2.137,0,3.886,1.773,3.886,3.94v36.12C150.97,43.227,149.221,45,147.084,45L147.084,45z"/>
<g>
	<path style="fill:#FFFFFF;" d="M51.486,12.628c0,0.787-0.14,1.467-0.42,2.04s-0.682,1.009-1.205,1.305
		c-0.523,0.297-1.139,0.445-1.845,0.445h-2.21v-7.1h2.2c1.14,0,2.005,0.279,2.595,0.84C51.191,10.718,51.486,11.542,51.486,12.628z
		 M50.626,12.659c0-0.867-0.215-1.521-0.645-1.965s-1.068-0.665-1.915-0.665h-1.45v5.68h1.28c0.894,0,1.571-0.26,2.035-0.78
		C50.395,14.409,50.626,13.652,50.626,12.659z"/>
	<path style="fill:#FFFFFF;" d="M55.127,16.518c-0.773,0-1.379-0.248-1.815-0.744c-0.437-0.497-0.655-1.195-0.655-2.096
		c0-0.906,0.219-1.609,0.655-2.109s1.042-0.75,1.815-0.75c0.779,0,1.387,0.251,1.819,0.755c0.434,0.503,0.65,1.205,0.65,2.104
		c0,0.894-0.217,1.59-0.65,2.09C56.514,16.268,55.906,16.518,55.127,16.518z M55.127,15.848c0.52,0,0.925-0.188,1.215-0.564
		s0.435-0.915,0.435-1.615c0-0.693-0.145-1.23-0.435-1.61s-0.695-0.569-1.215-0.569c-0.521,0-0.925,0.191-1.215,0.574
		c-0.29,0.384-0.436,0.919-0.436,1.605c0,0.693,0.146,1.23,0.436,1.61S54.606,15.848,55.127,15.848z"/>
	<path style="fill:#FFFFFF;" d="M60.026,16.418l-1.74-5.5h0.82l1.35,4.57l1.311-4.57h0.739l1.24,4.57l1.391-4.57h0.81l-1.79,5.5
		h-0.86l-1.18-4.36l-1.26,4.36H60.026z"/>
	<path style="fill:#FFFFFF;" d="M71.206,16.418h-0.771v-3.74c0-0.387-0.098-0.683-0.295-0.89c-0.196-0.207-0.465-0.311-0.805-0.311
		c-0.313,0-0.599,0.044-0.855,0.131c-0.256,0.086-0.515,0.22-0.774,0.399v4.41h-0.771v-5.5h0.631l0.109,0.46
		c0.313-0.206,0.613-0.352,0.9-0.435c0.286-0.084,0.606-0.125,0.96-0.125c0.326,0,0.616,0.069,0.87,0.21
		c0.253,0.14,0.449,0.34,0.59,0.6c0.14,0.26,0.21,0.577,0.21,0.95V16.418z"/>
	<path style="fill:#FFFFFF;" d="M72.855,16.418v-7.68h0.771v7.68H72.855z"/>
	<path style="fill:#FFFFFF;" d="M77.506,16.518c-0.773,0-1.379-0.248-1.815-0.744c-0.437-0.497-0.655-1.195-0.655-2.096
		c0-0.906,0.219-1.609,0.655-2.109s1.042-0.75,1.815-0.75c0.779,0,1.387,0.251,1.819,0.755c0.434,0.503,0.65,1.205,0.65,2.104
		c0,0.894-0.217,1.59-0.65,2.09C78.893,16.268,78.285,16.518,77.506,16.518z M77.506,15.848c0.52,0,0.925-0.188,1.215-0.564
		s0.435-0.915,0.435-1.615c0-0.693-0.145-1.23-0.435-1.61s-0.695-0.569-1.215-0.569c-0.521,0-0.925,0.191-1.215,0.574
		c-0.29,0.384-0.436,0.919-0.436,1.605c0,0.693,0.146,1.23,0.436,1.61S76.985,15.848,77.506,15.848z"/>
	<path style="fill:#FFFFFF;" d="M84.505,16.418l-0.12-0.47c-0.273,0.18-0.555,0.319-0.845,0.42c-0.29,0.1-0.608,0.149-0.955,0.149
		c-0.507,0-0.908-0.135-1.205-0.404c-0.297-0.271-0.444-0.646-0.444-1.125c0-0.627,0.267-1.082,0.8-1.365s1.399-0.445,2.6-0.485
		v-0.47c0-0.38-0.111-0.677-0.335-0.89c-0.224-0.214-0.521-0.32-0.895-0.32c-0.467,0-0.95,0.104-1.45,0.31l-0.21-0.619
		c0.54-0.214,1.113-0.32,1.72-0.32c0.613,0,1.09,0.158,1.43,0.475c0.341,0.317,0.511,0.745,0.511,1.285v3.83H84.505z M84.335,13.728
		c-0.866,0-1.519,0.103-1.955,0.306s-0.654,0.524-0.654,0.965c0,0.273,0.09,0.491,0.27,0.655c0.18,0.163,0.42,0.245,0.72,0.245
		c0.54,0,1.08-0.164,1.62-0.49V13.728z"/>
	<path style="fill:#FFFFFF;" d="M86.475,13.739c0-0.594,0.099-1.11,0.296-1.551c0.196-0.439,0.473-0.777,0.829-1.015
		c0.357-0.236,0.766-0.354,1.226-0.354c0.267,0,0.505,0.026,0.715,0.08c0.21,0.053,0.448,0.156,0.715,0.31v-2.47h0.771v7.68h-0.61
		l-0.12-0.47c-0.286,0.206-0.56,0.354-0.82,0.439c-0.26,0.087-0.526,0.13-0.8,0.13c-0.746,0-1.3-0.232-1.66-0.699
		C86.655,15.352,86.475,14.659,86.475,13.739z M87.285,13.728c0,0.707,0.121,1.239,0.365,1.596c0.243,0.356,0.628,0.535,1.154,0.535
		c0.247,0,0.5-0.051,0.761-0.15c0.26-0.1,0.489-0.233,0.689-0.4v-3.399c-0.273-0.167-0.505-0.28-0.695-0.34
		c-0.189-0.061-0.404-0.091-0.645-0.091c-0.313,0-0.594,0.091-0.84,0.271c-0.247,0.18-0.44,0.439-0.58,0.78
		C87.355,12.869,87.285,13.268,87.285,13.728z"/>
	<path style="fill:#FFFFFF;" d="M95.465,10.918v-0.62c0-1.04,0.434-1.56,1.3-1.56c0.394,0,0.771,0.06,1.13,0.18l-0.16,0.63
		c-0.293-0.093-0.576-0.14-0.85-0.14c-0.227,0-0.39,0.078-0.49,0.234c-0.1,0.157-0.149,0.389-0.149,0.695v0.58h1.439v0.65h-1.439
		v4.85h-0.78v-4.85h-0.89v-0.65H95.465z"/>
	<path style="fill:#FFFFFF;" d="M98.654,10.918h0.62l0.09,0.67c0.187-0.26,0.389-0.453,0.605-0.58
		c0.217-0.126,0.475-0.189,0.775-0.189c0.206,0,0.39,0.02,0.55,0.06l-0.11,0.74c-0.134-0.047-0.32-0.07-0.56-0.07
		c-0.24,0-0.459,0.062-0.655,0.186c-0.196,0.123-0.379,0.308-0.545,0.555v4.13h-0.771V10.918z"/>
	<path style="fill:#FFFFFF;" d="M104.205,16.518c-0.773,0-1.379-0.248-1.815-0.744c-0.437-0.497-0.655-1.195-0.655-2.096
		c0-0.906,0.219-1.609,0.655-2.109s1.042-0.75,1.815-0.75c0.779,0,1.387,0.251,1.819,0.755c0.434,0.503,0.65,1.205,0.65,2.104
		c0,0.894-0.217,1.59-0.65,2.09C105.592,16.268,104.984,16.518,104.205,16.518z M104.205,15.848c0.52,0,0.925-0.188,1.215-0.564
		s0.435-0.915,0.435-1.615c0-0.693-0.145-1.23-0.435-1.61s-0.695-0.569-1.215-0.569c-0.521,0-0.925,0.191-1.215,0.574
		c-0.29,0.384-0.436,0.919-0.436,1.605c0,0.693,0.146,1.23,0.436,1.61S103.685,15.848,104.205,15.848z"/>
	<path style="fill:#FFFFFF;" d="M115.484,16.418h-0.77v-3.74c0-0.406-0.087-0.708-0.261-0.904c-0.173-0.197-0.413-0.296-0.72-0.296
		c-0.573,0-1.113,0.194-1.62,0.58c0.04,0.141,0.061,0.307,0.061,0.5v3.86h-0.771v-3.74c0-0.406-0.088-0.708-0.265-0.904
		c-0.177-0.197-0.419-0.296-0.726-0.296c-0.573,0-1.093,0.177-1.56,0.53v4.41h-0.771v-5.5h0.631l0.109,0.46
		c0.26-0.18,0.53-0.318,0.811-0.415c0.279-0.097,0.596-0.145,0.949-0.145c0.294,0,0.557,0.06,0.79,0.18s0.414,0.29,0.54,0.51
		c0.367-0.246,0.709-0.423,1.025-0.53c0.316-0.106,0.645-0.159,0.985-0.159c0.486,0,0.868,0.154,1.145,0.465
		c0.276,0.31,0.415,0.741,0.415,1.295V16.418z"/>
</g>
<g>
	<path style="fill:#FFFFFF;" d="M51.564,24.878l-0.084,0.49l-0.168,0.882l-1.82,7.168h-1.834l-2.394-9.94h1.596l1.512,6.776
		c0.057,0.28,0.11,0.618,0.161,1.015c0.052,0.397,0.077,0.619,0.077,0.665l0.294-1.693l1.722-6.763h1.918l1.736,6.763
		c0.037,0.168,0.084,0.432,0.14,0.791c0.057,0.359,0.089,0.595,0.099,0.707l0.028,0.195c0-0.046,0.032-0.291,0.098-0.734
		s0.126-0.786,0.182-1.029c0.057-0.242,0.564-2.473,1.526-6.692h1.61l-2.395,9.94H53.65l-1.834-7.14
		C51.667,25.485,51.583,25.018,51.564,24.878z"/>
	<path style="fill:#FFFFFF;" d="M59.503,23.548c0-0.233,0.084-0.437,0.252-0.608c0.168-0.173,0.368-0.26,0.602-0.26
		s0.435,0.084,0.603,0.252s0.252,0.374,0.252,0.616c0,0.233-0.082,0.432-0.245,0.595c-0.163,0.164-0.366,0.245-0.609,0.245
		c-0.233,0-0.434-0.084-0.602-0.252S59.503,23.772,59.503,23.548z M59.629,33.418v-7.742h1.456v7.742H59.629z"/>
	<path style="fill:#FFFFFF;" d="M69.639,33.418h-1.456v-5.18c0-0.467-0.121-0.833-0.363-1.1c-0.243-0.266-0.579-0.398-1.008-0.398
		c-0.747,0-1.424,0.229-2.03,0.686v5.992h-1.456v-7.742h1.204l0.182,0.645c0.766-0.522,1.624-0.784,2.576-0.784
		c0.438,0,0.838,0.101,1.197,0.301c0.359,0.201,0.642,0.485,0.847,0.854c0.205,0.368,0.308,0.81,0.308,1.322V33.418z"/>
	<path style="fill:#FFFFFF;" d="M71.416,29.653c0-0.831,0.136-1.557,0.406-2.178c0.271-0.62,0.653-1.099,1.148-1.435
		c0.494-0.336,1.055-0.504,1.68-0.504c0.709,0,1.354,0.168,1.932,0.504v-3.374h1.456v10.752h-1.134l-0.238-0.658
		c-0.681,0.532-1.428,0.798-2.239,0.798c-1.018,0-1.773-0.324-2.269-0.973C71.664,31.937,71.416,30.959,71.416,29.653z
		 M72.929,29.625c0,0.915,0.149,1.596,0.448,2.044c0.298,0.448,0.76,0.672,1.386,0.672c0.308,0,0.632-0.067,0.973-0.203
		c0.341-0.135,0.623-0.296,0.847-0.482v-4.41c-0.606-0.336-1.171-0.504-1.693-0.504c-0.374,0-0.712,0.116-1.016,0.35
		c-0.303,0.233-0.536,0.569-0.699,1.008C73.01,28.538,72.929,29.045,72.929,29.625z"/>
	<path style="fill:#FFFFFF;" d="M83.442,33.558c-1.13,0-2.005-0.354-2.625-1.063c-0.621-0.709-0.932-1.689-0.932-2.94
		c0-1.26,0.313-2.244,0.938-2.954c0.625-0.709,1.498-1.063,2.618-1.063s1.992,0.354,2.618,1.063c0.625,0.71,0.938,1.694,0.938,2.954
		c0,1.27-0.312,2.254-0.938,2.954C85.435,33.208,84.562,33.558,83.442,33.558z M83.442,32.327c0.635,0,1.129-0.238,1.483-0.714
		c0.355-0.477,0.532-1.162,0.532-2.059c0-0.905-0.173-1.596-0.518-2.071c-0.346-0.477-0.845-0.715-1.498-0.715
		s-1.153,0.236-1.498,0.707c-0.346,0.472-0.519,1.165-0.519,2.079c0,0.878,0.176,1.559,0.525,2.044S82.798,32.327,83.442,32.327z"/>
	<path style="fill:#FFFFFF;" d="M90.274,33.418l-2.38-7.742h1.54l1.652,5.964l1.764-5.964h1.33l1.568,5.95l1.75-5.95h1.554
		l-2.534,7.742H94.95l-1.483-5.628l-1.681,5.628H90.274z"/>
	<path style="fill:#FFFFFF;" d="M104.876,31.249c0,0.728-0.238,1.295-0.714,1.701c-0.476,0.405-1.144,0.608-2.002,0.608
		c-0.905,0-1.703-0.116-2.395-0.35l0.294-1.26c0.757,0.271,1.461,0.405,2.114,0.405c0.401,0,0.712-0.086,0.932-0.259
		c0.219-0.172,0.328-0.417,0.328-0.734c0-0.233-0.049-0.418-0.146-0.554c-0.098-0.135-0.262-0.271-0.49-0.405
		c-0.229-0.136-0.529-0.273-0.902-0.413c-1.316-0.467-1.975-1.228-1.975-2.282c0-0.7,0.21-1.236,0.63-1.61
		c0.42-0.373,1.06-0.56,1.918-0.56c0.579,0,1.256,0.093,2.03,0.28l-0.266,1.231c-0.243-0.065-0.517-0.133-0.819-0.203
		c-0.304-0.069-0.623-0.104-0.959-0.104c-0.383,0-0.672,0.077-0.868,0.23c-0.196,0.154-0.294,0.366-0.294,0.638
		c0,0.299,0.126,0.543,0.378,0.734s0.663,0.39,1.232,0.595c0.662,0.233,1.157,0.537,1.483,0.91
		C104.713,30.222,104.876,30.688,104.876,31.249z"/>
	<path style="fill:#FFFFFF;" d="M116.09,30.688c0,0.878-0.289,1.575-0.868,2.094c-0.578,0.518-1.362,0.776-2.352,0.776
		c-1.194,0-2.24-0.153-3.136-0.462l0.406-1.399c0.373,0.149,0.783,0.277,1.231,0.385s0.942,0.161,1.484,0.161
		c0.541,0,0.963-0.131,1.267-0.393c0.304-0.261,0.455-0.602,0.455-1.021c0-0.309-0.07-0.562-0.21-0.763
		c-0.14-0.201-0.366-0.399-0.679-0.596c-0.313-0.195-0.745-0.41-1.295-0.644c-0.841-0.354-1.466-0.774-1.876-1.26
		c-0.411-0.485-0.616-1.073-0.616-1.765c0-0.746,0.272-1.344,0.818-1.792c0.547-0.448,1.281-0.672,2.205-0.672
		c0.383,0,0.757,0.026,1.12,0.077c0.364,0.052,0.878,0.175,1.54,0.371l-0.392,1.33c-0.364-0.112-0.733-0.217-1.106-0.315
		c-0.373-0.098-0.766-0.146-1.176-0.146c-0.485,0-0.856,0.1-1.113,0.301s-0.385,0.479-0.385,0.833c0,0.373,0.158,0.695,0.477,0.966
		c0.316,0.271,0.9,0.588,1.75,0.952c0.84,0.354,1.458,0.77,1.854,1.246C115.892,29.428,116.09,30.007,116.09,30.688z"/>
	<path style="fill:#FFFFFF;" d="M119.618,26.838v4.564c0,0.615,0.266,0.924,0.798,0.924c0.317,0,0.742-0.065,1.274-0.196l0.182,1.12
		c-0.56,0.205-1.195,0.308-1.904,0.308c-0.588,0-1.036-0.151-1.344-0.455c-0.308-0.303-0.462-0.795-0.462-1.477v-4.788h-1.176
		v-1.162h1.204l0.168-1.876h1.26v1.876h2.058v1.162H119.618z"/>
	<path style="fill:#FFFFFF;" d="M126.395,33.558c-1.13,0-2.005-0.354-2.625-1.063c-0.621-0.709-0.932-1.689-0.932-2.94
		c0-1.26,0.313-2.244,0.938-2.954c0.625-0.709,1.498-1.063,2.618-1.063s1.992,0.354,2.618,1.063c0.625,0.71,0.938,1.694,0.938,2.954
		c0,1.27-0.312,2.254-0.938,2.954C128.387,33.208,127.515,33.558,126.395,33.558z M126.395,32.327c0.635,0,1.129-0.238,1.483-0.714
		c0.355-0.477,0.532-1.162,0.532-2.059c0-0.905-0.173-1.596-0.518-2.071c-0.346-0.477-0.845-0.715-1.498-0.715
		s-1.153,0.236-1.498,0.707c-0.346,0.472-0.519,1.165-0.519,2.079c0,0.878,0.176,1.559,0.525,2.044S125.75,32.327,126.395,32.327z"
		/>
	<path style="fill:#FFFFFF;" d="M131.799,25.676h1.189l0.141,0.924c0.504-0.709,1.12-1.063,1.848-1.063
		c0.354,0,0.658,0.037,0.91,0.112l-0.196,1.371c-0.233-0.074-0.536-0.111-0.91-0.111c-0.279,0-0.553,0.072-0.818,0.217
		c-0.267,0.145-0.502,0.357-0.707,0.637v5.656h-1.456V25.676z"/>
	<path style="fill:#FFFFFF;" d="M142.732,29.779h-4.802c0,0.849,0.187,1.498,0.56,1.945c0.373,0.448,0.938,0.672,1.694,0.672
		c0.364,0,0.77-0.051,1.218-0.153s0.821-0.22,1.12-0.351l0.294,1.148c-0.383,0.168-0.826,0.296-1.33,0.385s-0.994,0.133-1.47,0.133
		c-1.176,0-2.07-0.331-2.682-0.993c-0.611-0.663-0.917-1.629-0.917-2.898c0-1.325,0.28-2.345,0.841-3.059
		c0.56-0.715,1.362-1.071,2.407-1.071c1.009,0,1.771,0.306,2.289,0.917c0.519,0.611,0.777,1.505,0.777,2.681V29.779z
		 M141.305,28.728c0-0.672-0.131-1.188-0.393-1.547c-0.261-0.358-0.653-0.539-1.176-0.539c-0.514,0-0.929,0.178-1.246,0.532
		s-0.504,0.873-0.56,1.554H141.305z"/>
</g>
<g>
	<path style="fill:#FFFFFF;" d="M10.981,31.431l10.49,1.519V22.914h-10.49V31.431z M10.981,21.48h10.49V11.443l-10.49,1.519V21.48z
		 M22.905,33.158l14.076,2.039V22.914H22.905V33.158z M22.905,11.235V21.48H36.98V9.197L22.905,11.235z"/>
</g>
</svg>
